#!OML:ASF Y:\EmotionMaleHayes\Project 1\Capture day 1\Session 1\Male1.ASF
:FULLY-SPECIFIED
:DEGREES
77
root -30.3347 17.0331 1.24428 81.2176 84.4642 81.3191
lowerback 3.14586 1.65287 -8.75905
upperback 1.1725 1.97812 -1.53116
thorax -0.787456 1.00614 3.24032
lowerneck -20.7379 3.22207 4.73816
upperneck 26.4038 3.96092 -2.20481
head 12.3224 2.06848 -0.95034
rclavicle 1.06226e-014 -2.88238e-014
rhumerus -33.4207 8.57788 -92.8459
rradius 29.8639
rwrist 7.76648
rhand -11.9207 -30.2975
rfingers 7.12502
rthumb 14.1334 -59.7968
lclavicle 1.06226e-014 -2.88238e-014
lhumerus -29.9934 -5.35548 91.1453
lradius 22.4074
lwrist -18.391
lhand -15.7205 -26.2324
lfingers 7.12502
lthumb 10.4698 3.48689
rfemur 8.87914 -6.62173 8.98009
rtibia 3.89439
rfoot -17.6018 -3.08181
rtoes 5.37622
lfemur 9.75733 3.06254 -24.0527
ltibia -1.58717
lfoot -11.058 10.8015
ltoes -8.71427
78
root -30.3353 17.0331 1.2447 80.9622 84.3784 80.985
lowerback 3.06233 1.65583 -8.85168
upperback 1.16138 1.9886 -1.57203
thorax -0.754755 1.0108 3.25111
lowerneck -20.7409 3.24218 4.77369
upperneck 26.372 3.96503 -2.17368
head 12.3108 2.07731 -0.943884
rclavicle 2.48481e-017 1.15295e-014
rhumerus -33.3783 8.58255 -92.8818
rradius 29.8711
rwrist 7.62592
rhand -11.7339 -30.542
rfingers 7.12502
rthumb 14.3134 -60.0286
lclavicle 2.48481e-017 1.15295e-014
lhumerus -29.9756 -5.403 91.1309
lradius 22.4295
lwrist -18.2793
lhand -14.5171 -26.3311
lfingers 7.12502
lthumb 11.6305 3.32611
rfemur 8.73873 -6.84816 8.80333
rtibia 4.006
rfoot -17.5511 -2.81181
rtoes 5.39777
lfemur 9.73682 2.84086 -24.2226
ltibia -1.72788
lfoot -11.0842 11.0451
ltoes -8.42528
79
root -30.3458 17.0339 1.25425 79.9956 84.6877 79.9217
lowerback 3.11808 1.66212 -8.67328
upperback 1.09219 1.9882 -1.45438
thorax -0.85691 1.01464 3.27111
lowerneck -20.7073 3.25142 4.75659
upperneck 26.3305 3.97225 -2.13589
head 12.2867 2.08363 -0.926039
rclavicle 4.96962e-015 -1.53064e-014
rhumerus -33.3971 8.52566 -92.8398
rradius 29.8995
rwrist 7.5817
rhand -11.5672 -30.5277
rfingers 7.12502
rthumb 14.474 -60.0029
lclavicle 4.96962e-015 -1.53064e-014
lhumerus -29.9675 -5.2664 91.0937
lradius 22.4205
lwrist -18.3609
lhand -13.8218 -26.324
lfingers 7.12502
lthumb 12.3009 3.29415
rfemur 8.54856 -6.22111 9.47761
rtibia 3.92804
rfoot -17.6572 -3.41694
rtoes 5.47179
lfemur 9.54538 2.76411 -23.7362
ltibia -1.63557
lfoot -11.1408 11.0942
ltoes -8.08024
80
root -30.3593 17.0348 1.26347 79.5459 84.8638 79.4631
lowerback 3.31139 1.67539 -8.63541
upperback 1.02995 1.98048 -1.36924
thorax -1.03116 1.01813 3.33184
lowerneck -20.6789 3.24307 4.73617
upperneck 26.3116 3.96322 -2.11949
head 12.2722 2.07993 -0.918339
rclavicle -7.45443e-015 8.54774e-015
rhumerus -33.4391 8.47354 -92.792
rradius 29.864
rwrist 7.62262
rhand -11.5558 -30.2434
rfingers 7.12502
rthumb 14.485 -59.7178
lclavicle -7.45443e-015 8.54774e-015
lhumerus -29.9959 -5.16288 91.0815
lradius 22.3835
lwrist -18.5444
lhand -13.9148 -26.3958
lfingers 7.12502
lthumb 12.2113 3.22771
rfemur 8.47542 -5.41146 10.0181
rtibia 3.7968
rfoot -17.7568 -4.2608
rtoes 5.49527
lfemur 9.38607 2.69352 -23.4098
ltibia -1.46062
lfoot -11.1214 11.1699
ltoes -8.43762
81
root -30.3495 17.031 1.25521 80.7679 84.3444 80.761
lowerback 3.25986 1.66924 -9.10025
upperback 1.08111 1.97111 -1.53134
thorax -0.956104 1.01213 3.42466
lowerneck -20.686 3.23977 4.76367
upperneck 26.2935 3.95338 -2.14071
head 12.2673 2.07498 -0.932631
rclavicle 1.13059e-015 -2.38542e-015
rhumerus -33.4158 8.51236 -92.8163
rradius 29.798
rwrist 7.61862
rhand -11.5058 -30.3175
rfingers 7.12502
rthumb 14.5332 -59.7884
lclavicle 1.13059e-015 -2.38542e-015
lhumerus -29.9328 -5.0139 91.0286
lradius 22.3696
lwrist -18.3396
lhand -13.9952 -26.4836
lfingers 7.12502
lthumb 12.1337 3.14452
rfemur 8.64612 -5.89071 9.14166
rtibia 3.84108
rfoot -17.7104 -3.87716
rtoes 4.60255
lfemur 9.45834 2.91105 -24.0853
ltibia -1.34562
lfoot -11.1197 10.9568
ltoes -8.61644
82
root -30.3353 17.0292 1.24574 81.1202 83.9851 81.1854
lowerback 3.13495 1.67073 -9.35344
upperback 1.1515 1.98842 -1.65922
thorax -0.817757 1.01522 3.43646
lowerneck -20.6323 3.23816 4.74635
upperneck 26.1987 3.94718 -2.11666
head 12.2179 2.07282 -0.922687
rclavicle 1.32937e-015 1.41137e-014
rhumerus -33.3758 8.51888 -92.8413
rradius 29.7647
rwrist 7.63048
rhand -11.3653 -30.6969
rfingers 7.12502
rthumb 14.6686 -60.1581
lclavicle 1.32937e-015 1.41137e-014
lhumerus -29.98 -5.23542 91.1083
lradius 22.4888
lwrist -17.9754
lhand -14.7264 -26.3295
lfingers 7.12502
lthumb 11.4286 3.33897
rfemur 8.7985 -6.37721 8.46466
rtibia 3.92408
rfoot -17.668 -3.31746
rtoes 4.24979
lfemur 9.60435 3.08841 -24.5741
ltibia -1.35847
lfoot -11.1313 10.7969
ltoes -8.31332
83
root -30.3323 17.0294 1.2456 80.0999 83.9641 80.2336
lowerback 3.15803 1.70715 -9.34663
upperback 1.16809 2.03583 -1.67123
thorax -0.818844 1.0386 3.41752
lowerneck -20.6113 3.25781 4.8189
upperneck 26.1955 3.97872 -2.20515
head 12.2176 2.08267 -0.963223
rclavicle 1.63749e-014 3.26007e-014
rhumerus -33.3791 8.39528 -92.7919
rradius 29.7165
rwrist 7.68485
rhand -11.2508 -30.5498
rfingers 7.12502
rthumb 14.7789 -60.0028
lclavicle 1.63749e-014 3.26007e-014
lhumerus -29.9629 -5.10641 91.0636
lradius 22.4649
lwrist -18.1105
lhand -14.8981 -26.2579
lfingers 7.12502
lthumb 11.263 3.41975
rfemur 8.84674 -6.1662 8.50148
rtibia 3.92201
rfoot -17.6661 -3.321
rtoes 4.99391
lfemur 9.74262 3.15279 -24.5572
ltibia -1.5193
lfoot -10.9897 10.8944
ltoes -9.21954
84
root -30.3318 17.0272 1.24721 79.6648 84.0133 79.8205
lowerback 3.18862 1.72095 -9.30908
upperback 1.15146 2.04994 -1.6547
thorax -0.854625 1.04727 3.41191
lowerneck -20.558 3.25397 4.81111
upperneck 26.1618 3.97814 -2.20606
head 12.1935 2.08192 -0.963084
rclavicle 1.19644e-014 -2.64384e-014
rhumerus -33.429 8.28533 -92.7303
rradius 29.6794
rwrist 7.75297
rhand -11.2132 -30.1966
rfingers 7.12502
rthumb 14.8151 -59.647
lclavicle 1.19644e-014 -2.64384e-014
lhumerus -29.9813 -5.18214 91.0922
lradius 22.4021
lwrist -18.0583
lhand -14.7537 -26.2387
lfingers 7.12502
lthumb 11.4023 3.43131
rfemur 8.86624 -6.21468 8.54942
rtibia 3.92398
rfoot -17.6244 -3.26192
rtoes 5.22896
lfemur 9.7907 3.25001 -24.4489
ltibia -1.57796
lfoot -10.9444 10.8534
ltoes -9.42526
85
root -30.3292 17.0271 1.24723 80.1738 84.3058 80.3004
lowerback 3.1363 1.66756 -9.00023
upperback 1.1588 1.99231 -1.58705
thorax -0.803362 1.01504 3.31548
lowerneck -20.5942 3.25229 4.80976
upperneck 26.1569 3.97866 -2.22564
head 12.1992 2.07853 -0.969795
rclavicle 9.49197e-015 -3.4191e-014
rhumerus -33.4235 8.29739 -92.7326
rradius 29.6534
rwrist 7.79566
rhand -11.1707 -30.1071
rfingers 7.12502
rthumb 14.8561 -59.5545
lclavicle 9.49197e-015 -3.4191e-014
lhumerus -29.9144 -5.04835 91.0443
lradius 22.3131
lwrist -18.1788
lhand -14.7756 -26.2581
lfingers 7.12502
lthumb 11.3811 3.41303
rfemur 8.8906 -6.44824 8.83907
rtibia 3.86706
rfoot -17.5482 -3.17688
rtoes 4.82634
lfemur 9.83341 3.03031 -24.1839
ltibia -1.64163
lfoot -11.0372 10.9289
ltoes -8.77604
86
root -30.3236 17.0292 1.24396 80.2304 84.4055 80.3375
lowerback 3.06639 1.65564 -8.8964
upperback 1.15791 1.98588 -1.53519
thorax -0.763041 1.0095 3.31402
lowerneck -20.61 3.25223 4.80986
upperneck 26.1818 4.00701 -2.3167
head 12.2154 2.07923 -0.999196
rclavicle -1.66482e-014 -2.72335e-014
rhumerus -33.4396 8.33098 -92.6701
rradius 29.637
rwrist 7.73722
rhand -11.0335 -29.9987
rfingers 7.12502
rthumb 14.9882 -59.4363
lclavicle -1.66482e-014 -2.72335e-014
lhumerus -29.9376 -4.97455 91.0902
lradius 22.3446
lwrist -18.2239
lhand -14.3192 -26.2574
lfingers 7.12502
lthumb 11.8213 3.38893
rfemur 8.89551 -6.53345 8.93054
rtibia 3.83921
rfoot -17.5161 -3.08555
rtoes 4.67579
lfemur 9.91983 2.76593 -24.1862
ltibia -1.78821
lfoot -11.0896 11.1435
ltoes -8.93992
87
root -30.3241 17.0282 1.2438 79.2885 84.2171 79.3914
lowerback 3.06051 1.70377 -9.02982
upperback 1.13451 2.04675 -1.62001
thorax -0.792587 1.04261 3.29691
lowerneck -20.552 3.25064 4.84619
upperneck 26.1732 4.00294 -2.33809
head 12.2017 2.07927 -1.0147
rclavicle 5.51627e-015 -1.92821e-014
rhumerus -33.4501 8.20049 -92.6645
rradius 29.6067
rwrist 7.82727
rhand -10.849 -30.0507
rfingers 7.12502
rthumb 15.1659 -59.4749
lclavicle 5.51627e-015 -1.92821e-014
lhumerus -29.98 -5.03676 91.0514
lradius 22.3766
lwrist -18.1907
lhand -13.3816 -26.2691
lfingers 7.12502
lthumb 12.7254 3.32317
rfemur 8.84763 -6.26808 8.79065
rtibia 3.83598
rfoot -17.5272 -3.20406
rtoes 4.61907
lfemur 9.94847 2.56418 -24.4446
ltibia -1.86978
lfoot -11.161 11.4368
ltoes -8.6076
88
root -30.3254 17.0277 1.24463 78.2908 84.2336 78.3999
lowerback 3.07982 1.74163 -9.04881
upperback 1.13286 2.09367 -1.58575
thorax -0.812906 1.06648 3.34005
lowerneck -20.6291 3.25113 4.88771
upperneck 26.2397 4.01678 -2.43256
head 12.2471 2.0768 -1.054
rclavicle -2.03754e-015 -1.88845e-014
rhumerus -33.4338 8.1771 -92.6018
rradius 29.5918
rwrist 8.01474
rhand -10.6987 -30.4465
rfingers 7.12502
rthumb 15.3108 -59.8598
lclavicle -2.03754e-015 -1.88845e-014
lhumerus -29.946 -4.96158 91.0653
lradius 22.3494
lwrist -18.2442
lhand -12.9139 -26.2407
lfingers 7.12502
lthumb 13.1762 3.323
rfemur 8.82882 -6.12442 8.86944
rtibia 3.81201
rfoot -17.5583 -3.3089
rtoes 4.02156
lfemur 9.98487 2.42809 -24.423
ltibia -1.93224
lfoot -11.1883 11.6639
ltoes -8.1508
89
root -30.3246 17.0293 1.24366 77.9488 84.3708 78.0545
lowerback 3.04929 1.73575 -8.87256
upperback 1.15914 2.09544 -1.57411
thorax -0.763404 1.06439 3.25582
lowerneck -20.6923 3.26471 4.95183
upperneck 26.2267 4.01393 -2.45358
head 12.2568 2.07757 -1.07255
rclavicle 1.31695e-015 1.98785e-015
rhumerus -33.4055 8.25292 -92.6812
rradius 29.598
rwrist 8.09525
rhand -10.7337 -30.7423
rfingers 7.12502
rthumb 15.277 -60.1581
lclavicle 1.31695e-015 1.98785e-015
lhumerus -29.8955 -5.01761 91.0517
lradius 22.368
lwrist -18.1763
lhand -13.3818 -26.0974
lfingers 7.12502
lthumb 12.7251 3.49488
rfemur 8.82424 -6.15862 9.03287
rtibia 3.84534
rfoot -17.6337 -3.26608
rtoes 4.15883
lfemur 9.99702 2.45917 -24.2502
ltibia -1.98458
lfoot -11.0983 11.6944
ltoes -8.64056
